<svg width="325" height="336" viewBox="0 0 325 336" fill="none" xmlns="http://www.w3.org/2000/svg">
<g clip-path="url(#clip0_60_193)">
<path d="M290.168 145.483L37.9314 181.89C27.0095 183.499 15.9401 179.843 8.5604 171.802C3.24705 165.953 0 158.204 0 149.723C0 132.178 13.8738 117.849 31.4373 116.971C32.6181 116.971 33.6512 116.825 34.832 116.679L287.069 80.4178C297.99 78.8094 309.06 82.4648 316.44 90.5065C321.753 96.3551 325 104.104 325 112.585C325 130.131 311.126 144.46 293.563 145.337C292.53 145.191 291.349 145.337 290.168 145.483Z" fill="white" fill-opacity="0.05"/>
<path d="M263.896 231.749L61.1035 260.992C42.802 260.992 28.0427 246.371 28.0427 228.24C28.0427 210.11 42.802 195.488 61.1035 195.488L263.896 166.245C282.198 166.245 296.957 180.867 296.957 198.997C296.957 216.982 282.198 231.749 263.896 231.749Z" fill="white" fill-opacity="0.05"/>
<path d="M210.32 321.379L114.532 336C96.2307 336 81.4714 321.379 81.4714 303.248C81.4714 285.117 96.2307 270.496 114.532 270.496L210.32 255.875C228.622 255.875 243.381 270.496 243.381 288.627C243.529 306.757 228.622 321.379 210.32 321.379Z" fill="white" fill-opacity="0.05"/>
<path d="M195.561 76.7624V32.752C195.561 14.6214 180.802 0 162.5 0C144.198 0 129.439 14.6214 129.439 32.752V86.2663L195.561 76.7624Z" fill="white" fill-opacity="0.05"/>
</g>
<defs>
<clipPath id="clip0_60_193">
<rect width="325" height="336" fill="white"/>
</clipPath>
</defs>
</svg>
